<svg width="24" height="24" viewBox="0 0 24 24" fill="none" xmlns="http://www.w3.org/2000/svg">
<path d="M13 12C13 11.4477 12.5523 11 12 11C11.4477 11 11 11.4477 11 12C11 12.5523 11.4477 13 12 13C12.5523 13 13 12.5523 13 12Z" fill="white"/>
<mask id="mask0_25_386" style="mask-type:alpha" maskUnits="userSpaceOnUse" x="0" y="-2" width="24" height="28">
<path d="M24 -1.33598L12.9996 12.0581L24 25.4523H0L11.0004 12.0581L0 -1.33598H24Z" fill="white"/>
</mask>
<g mask="url(#mask0_25_386)">
<path fill-rule="evenodd" clip-rule="evenodd" d="M12 9.75C10.7574 9.75 9.75 10.7574 9.75 12C9.75 13.2426 10.7574 14.25 12 14.25C13.2426 14.25 14.25 13.2426 14.25 12C14.25 10.7574 13.2426 9.75 12 9.75ZM8.25 12C8.25 9.92893 9.92893 8.25 12 8.25C14.0711 8.25 15.75 9.92893 15.75 12C15.75 14.0711 14.0711 15.75 12 15.75C9.92893 15.75 8.25 14.0711 8.25 12Z" fill="white"/>
<path fill-rule="evenodd" clip-rule="evenodd" d="M12 6.75C9.10051 6.75 6.75 9.10051 6.75 12C6.75 14.8995 9.10051 17.25 12 17.25C14.8995 17.25 17.25 14.8995 17.25 12C17.25 9.10051 14.8995 6.75 12 6.75ZM5.25 12C5.25 8.27208 8.27208 5.25 12 5.25C15.7279 5.25 18.75 8.27208 18.75 12C18.75 15.7279 15.7279 18.75 12 18.75C8.27208 18.75 5.25 15.7279 5.25 12Z" fill="white"/>
<path fill-rule="evenodd" clip-rule="evenodd" d="M11.9999 3.67579C7.45381 3.67579 3.74988 7.41834 3.74988 12.0581C3.74988 16.6979 7.45381 20.4405 11.9999 20.4405C16.5459 20.4405 20.2499 16.6979 20.2499 12.0581C20.2499 7.41834 16.5459 3.67579 11.9999 3.67579ZM2.24988 12.0581C2.24988 6.61063 6.60482 2.17579 11.9999 2.17579C17.3949 2.17579 21.7499 6.61063 21.7499 12.0581C21.7499 17.5057 17.3949 21.9405 11.9999 21.9405C6.60482 21.9405 2.24988 17.5057 2.24988 12.0581Z" fill="white"/>
</g>
</svg>
