<svg width="24" height="24" viewBox="0 0 24 24" fill="none" xmlns="http://www.w3.org/2000/svg">
<path fill-rule="evenodd" clip-rule="evenodd" d="M5.40002 12C5.40002 8.35492 8.35494 5.4 12 5.4C15.6451 5.4 18.6 8.35492 18.6 12C18.6 15.6451 15.6451 18.6 12 18.6C8.35494 18.6 5.40002 15.6451 5.40002 12ZM12 6.6C9.01769 6.6 6.60002 9.01766 6.60002 12C6.60002 14.9823 9.01769 17.4 12 17.4C14.9824 17.4 17.4 14.9823 17.4 12C17.4 9.01766 14.9824 6.6 12 6.6Z" fill="white"/>
<path d="M14.0835 9.38182C14.0835 9.92406 13.6439 10.3636 13.1017 10.3636C12.5594 10.3636 12.1199 9.92406 12.1199 9.38182C12.1199 8.83958 12.5594 8.4 13.1017 8.4C13.6439 8.4 14.0835 8.83958 14.0835 9.38182Z" fill="white"/>
<path d="M12 11.4H13.2L12 15.6H10.8L12 11.4Z" fill="white"/>
</svg>
