<svg width="24" height="24" viewBox="0 0 24 24" fill="none" xmlns="http://www.w3.org/2000/svg">
<path fill-rule="evenodd" clip-rule="evenodd" d="M22.6167 6.0765L17.8015 1.26134L15.8807 3.17985C13.3592 2.32045 10.7262 3.23365 8.80305 5.15684L9.51001 5.8638L9.50746 5.86635L11.3516 7.71044L9.44079 9.6212L10.855 11.0354L12.7658 9.12465L14.753 11.1119L12.8422 13.0226L14.2564 14.4368L16.1672 12.5261L18.011 14.3699L18.0135 14.3673L18.7208 15.0746C20.6848 13.1105 21.5219 10.4452 20.6964 7.99699L22.6167 6.0765ZM17.9599 12.9045C19.0883 11.3782 19.3049 9.6354 18.6186 8.18406L18.3176 7.54746L19.7883 6.07657L17.8007 4.0889L16.3286 5.55913L15.6925 5.25851C14.1847 4.54596 12.47 4.79998 10.9717 5.91635L17.9599 12.9045ZM1.28945 17.7726L6.10461 22.5878L8.02547 20.6693C10.5469 21.5287 13.1799 20.6155 15.1031 18.6923L13.6889 17.2781L13.6765 17.2903L6.58727 10.2011L6.59956 10.1887L5.18535 8.77453C4.01642 9.94346 3.26767 11.2216 2.98003 12.5652C2.74106 13.6816 2.83142 14.7932 3.20584 15.856L1.28945 17.7726ZM8.21364 18.5906C9.71573 19.3004 11.4231 19.051 12.9174 17.9454L5.92478 10.9528C5.39002 11.648 5.07543 12.3313 4.93572 12.9839C4.74671 13.8669 4.86193 14.765 5.28753 15.665L5.58856 16.3016L4.11781 17.7725L6.10548 19.7602L7.57751 18.29L8.21364 18.5906Z" fill="white"/>
</svg>
