<svg width="24" height="21" viewBox="0 0 24 21" fill="none" xmlns="http://www.w3.org/2000/svg">
<rect x="17.4205" y="8.40125" width="1.5" height="1.5" rx="0.75" fill="white"/>
<rect x="13.858" y="8.39807" width="1.5" height="1.5" rx="0.75" fill="white"/>
<rect x="15.6476" y="8.20374" width="1.5" height="1.5" rx="0.75" transform="rotate(-90 15.6476 8.20374)" fill="white"/>
<rect x="15.6476" y="11.6036" width="1.5" height="1.5" rx="0.75" transform="rotate(-90 15.6476 11.6036)" fill="white"/>
<path fill-rule="evenodd" clip-rule="evenodd" d="M2.92706 1.01209L21.3051 19.3901L21.2763 19.4189L21.981 20.1236L22.8968 19.2077L21.8929 18.2037H22.7158C23.3206 18.2037 23.787 17.6711 23.707 17.0716L22.4365 7.54292C22.1053 5.05889 19.9864 3.20374 17.4804 3.20374H6.89288L3.81415 0.125L2.92706 1.01209ZM15.3339 15.2037L13.3339 13.2037H8.2722C7.47655 13.2037 6.71349 13.5198 6.15088 14.0824L4.02956 16.2037H2.14235L3.26188 7.80724C3.42434 6.58883 4.30364 5.62258 5.44065 5.31048L3.90811 3.77794C2.51443 4.51193 1.5001 5.88783 1.27943 7.54292L0.00893788 17.0716C-0.0709933 17.6711 0.395376 18.2037 1.00017 18.2037H4.44377C4.70899 18.2037 4.96334 18.0984 5.15088 17.9108L7.56509 15.4966C7.75263 15.3091 8.00698 15.2037 8.2722 15.2037H15.3339ZM6.8339 6.70374H6.78668V8.6637H4.82672V9.64369H6.78668V11.6037H7.76667V9.64369H9.72668V9.59652L8.79386 8.6637H7.76667V7.63651L6.8339 6.70374ZM20.0978 16.2037L18.6632 14.974L8.89288 5.20374H17.4804C18.984 5.20374 20.2554 6.31683 20.4541 7.80724L21.5736 16.2037H20.0978Z" fill="white"/>
</svg>
