<svg width="24" height="25" viewBox="0 0 24 25" fill="none" xmlns="http://www.w3.org/2000/svg">
<path d="M2.41267 9.59634C2.67763 7.60912 4.37277 6.125 6.37758 6.125H17.6224C19.6272 6.125 21.3224 7.60912 21.5873 9.59635L22.8578 19.125L19.8699 19.125L16.9317 16.6065C16.5692 16.2958 16.1075 16.125 15.6301 16.125H8.41421C7.88378 16.125 7.37507 16.3357 7 16.7108L4.58579 19.125H1.14218L2.41267 9.59634Z" stroke="white" stroke-width="2"/>
<rect x="6.92871" y="8.625" width="0.979993" height="4.89996" fill="white"/>
<rect x="9.86871" y="10.585" width="0.979993" height="4.89996" transform="rotate(90 9.86871 10.585)" fill="white"/>
<rect x="17.5625" y="10.3225" width="1.5" height="1.5" rx="0.75" fill="white"/>
<rect x="14" y="10.3193" width="1.5" height="1.5" rx="0.75" fill="white"/>
<rect x="15.7897" y="10.125" width="1.5" height="1.5" rx="0.75" transform="rotate(-90 15.7897 10.125)" fill="white"/>
<rect x="15.7897" y="13.525" width="1.5" height="1.5" rx="0.75" transform="rotate(-90 15.7897 13.525)" fill="white"/>
</svg>
