<svg width="24" height="24" viewBox="0 0 24 24" fill="none" xmlns="http://www.w3.org/2000/svg">
<path fill-rule="evenodd" clip-rule="evenodd" d="M7 2.77777C5.02026 2.77777 3.50052 4.42243 3.45891 6.35552L3.39632 9.26404C3.39192 9.46852 3.22121 9.84887 2.64753 10.2485C2.09608 10.6326 1.43895 10.8361 1 10.8361V13.2806C1.43908 13.2806 2.09635 13.4841 2.64795 13.8682C3.22177 14.2679 3.39273 14.6483 3.3972 14.853L3.45817 17.6449C3.50038 19.578 5.02031 21.2222 7 21.2222V18.7778C6.45799 18.7778 5.91765 18.3068 5.90203 17.5915L5.84106 14.7997C5.8149 13.6015 5.08154 12.67 4.30865 12.0582C5.08133 11.4463 5.81441 10.5148 5.84019 9.31664L5.90279 6.40811C5.91818 5.69307 6.45829 5.22222 7 5.22222V2.77777ZM17 2.77777C18.9797 2.77777 20.4995 4.42243 20.5411 6.35552L20.6037 9.26404C20.6081 9.46852 20.7788 9.84887 21.3525 10.2485C21.9039 10.6326 22.5611 10.8361 23 10.8361V13.2806C22.5609 13.2806 21.9037 13.4841 21.3521 13.8682C20.7782 14.2679 20.6073 14.6483 20.6028 14.853L20.5418 17.6449C20.4996 19.578 18.9797 21.2222 17 21.2222V18.7778C17.542 18.7778 18.0823 18.3068 18.098 17.5915L18.1589 14.7997C18.1851 13.6015 18.9185 12.67 19.6913 12.0582C18.9187 11.4463 18.1856 10.5148 18.1598 9.31664L18.0972 6.40811C18.0818 5.69307 17.5417 5.22222 17 5.22222V2.77777ZM12 9.5C12.6213 9.5 13.125 8.99632 13.125 8.375C13.125 7.75368 12.6213 7.25 12 7.25C11.3787 7.25 10.875 7.75368 10.875 8.375C10.875 8.99632 11.3787 9.5 12 9.5ZM13 11.75C13 11.1977 12.5523 10.75 12 10.75C11.4477 10.75 11 11.1977 11 11.75V15.171C11 15.7233 11.4477 16.171 12 16.171C12.5523 16.171 13 15.7233 13 15.171V11.75Z" fill="white"/>
</svg>
