<svg width="24" height="24" viewBox="0 0 24 24" fill="none" xmlns="http://www.w3.org/2000/svg">
<path fill-rule="evenodd" clip-rule="evenodd" d="M20 6H4V4H20V6ZM15.4108 10.7385C14.0003 10.7385 12.8569 11.8819 12.8569 13.2923C12.8569 14.7028 14.0003 15.8462 15.4108 15.8462C16.8212 15.8462 17.9646 14.7028 17.9646 13.2923C17.9646 11.8819 16.8212 10.7385 15.4108 10.7385ZM10.8569 13.2923C10.8569 10.7773 12.8958 8.73846 15.4108 8.73846C17.9258 8.73846 19.9646 10.7773 19.9646 13.2923C19.9646 14.383 19.5812 15.3842 18.9417 16.1683L20.8997 18.3914L19.3988 19.7133L17.3666 17.4059C16.7741 17.6882 16.1109 17.8462 15.4108 17.8462C12.8958 17.8462 10.8569 15.8073 10.8569 13.2923ZM4 20H11V18H4V20ZM4 13H9V11H4V13Z" fill="white"/>
</svg>
