<svg width="24" height="24" viewBox="0 0 24 24" fill="none" xmlns="http://www.w3.org/2000/svg">
<path fill-rule="evenodd" clip-rule="evenodd" d="M12.9227 4.34042C14.7964 2.5308 17.7746 2.55668 19.6165 4.39859C21.4584 6.2405 21.4843 9.21875 19.6747 11.0924L19.6625 11.1048L17.3976 13.3697C16.4181 14.3496 15.0613 14.8557 13.6794 14.7567C12.2975 14.6577 11.0266 13.9634 10.1968 12.854L11.7983 11.656C12.2806 12.3008 13.0191 12.7043 13.8223 12.7618C14.6254 12.8193 15.4139 12.5252 15.9831 11.9557L15.9833 11.9556L18.2417 9.69719C19.2877 8.60797 19.2709 6.88136 18.2023 5.8128C17.1335 4.74394 15.4061 4.72737 14.317 5.77436L13.0239 7.05995L11.6138 5.64162L12.9124 4.35055L12.9227 4.34042Z" fill="white"/>
<path fill-rule="evenodd" clip-rule="evenodd" d="M7.61771 9.39909C8.5972 8.41932 9.95393 7.91325 11.3358 8.01221C12.7177 8.11119 13.9885 8.80549 14.8184 9.91492L13.2169 11.1129C12.7346 10.4681 11.9961 10.0646 11.1929 10.0071C10.3898 9.94959 9.6013 10.2437 9.03206 10.8132L9.03193 10.8133L6.77349 13.0717C5.72744 14.161 5.74432 15.8876 6.81286 16.9561C7.88141 18.0247 9.60802 18.0415 10.6972 16.9955L11.9817 15.711L13.3959 17.1252L12.1048 18.4163L12.0925 18.4285C10.2188 20.2381 7.24056 20.2122 5.39865 18.3703C3.55674 16.5284 3.53086 13.5502 5.34048 11.6765L5.35267 11.6641L7.61759 9.39922C7.61763 9.39917 7.61767 9.39913 7.61771 9.39909Z" fill="white"/>
</svg>
