<svg width="24" height="24" viewBox="0 0 24 24" fill="none" xmlns="http://www.w3.org/2000/svg">
<path fill-rule="evenodd" clip-rule="evenodd" d="M9.70761 2.97959C11.3241 2.65804 12.9997 2.82307 14.5224 3.4538C16.0451 4.08453 17.3466 5.15264 18.2623 6.52306C19.178 7.89348 19.6667 9.50465 19.6667 11.1528H17.6667C17.6667 9.90021 17.2953 8.67572 16.5994 7.6342C15.9035 6.59268 14.9143 5.78092 13.757 5.30156C12.5998 4.8222 11.3263 4.69678 10.0978 4.94116C8.86924 5.18553 7.74074 5.78873 6.85501 6.67446C5.96927 7.5602 5.36607 8.6887 5.1217 9.91725C4.87732 11.1458 5.00274 12.4192 5.4821 13.5765C5.96146 14.7338 6.77323 15.7229 7.81474 16.4188C8.85626 17.1148 10.0808 17.4862 11.3334 17.4862L11.3334 19.4862C9.68519 19.4862 8.07402 18.9975 6.7036 18.0818C5.33319 17.1661 4.26508 15.8646 3.63434 14.3419C3.00361 12.8191 2.83858 11.1436 3.16013 9.52707C3.48167 7.91056 4.27535 6.42569 5.44079 5.26025C6.60623 4.09481 8.0911 3.30113 9.70761 2.97959ZM16.6667 13.6158C15.1018 13.6158 13.8333 14.8843 13.8333 16.4491C13.8333 17.5445 14.5495 18.6263 15.363 19.4849C15.7595 19.9034 16.1577 20.2465 16.4573 20.4851C16.5345 20.5466 16.6049 20.6009 16.6667 20.6476C16.7285 20.6009 16.7988 20.5466 16.876 20.4851C17.1757 20.2465 17.5739 19.9034 17.9704 19.4849C18.7838 18.6263 19.5 17.5445 19.5 16.4491C19.5 14.8843 18.2315 13.6158 16.6667 13.6158ZM16.3891 21.6798C16.3892 21.6799 16.3893 21.68 16.6667 21.264L16.3891 21.6798ZM16.9446 21.6796L16.9455 21.679L16.9482 21.6772L16.9572 21.6711L16.9888 21.6494C17.0158 21.6307 17.0543 21.6037 17.1026 21.5688C17.1994 21.4989 17.3359 21.3972 17.499 21.2674C17.8243 21.0083 18.2595 20.6338 18.6963 20.1727C19.5495 19.272 20.5 17.9464 20.5 16.4491C20.5 14.332 18.7838 12.6158 16.6667 12.6158C14.5496 12.6158 12.8333 14.332 12.8333 16.4491C12.8333 17.9464 13.7838 19.272 14.637 20.1727C15.0739 20.6338 15.509 21.0083 15.8344 21.2674C15.9974 21.3972 16.134 21.4989 16.2307 21.5688C16.2791 21.6037 16.3176 21.6307 16.3445 21.6494L16.3762 21.6711L16.3851 21.6772L16.3878 21.679L16.3891 21.6798L16.6667 21.8649L16.9446 21.6796ZM16.6667 21.264L16.9446 21.6796C16.9445 21.6797 16.944 21.68 16.6667 21.264ZM17.7779 16.4491C17.7779 17.0628 17.2804 17.5602 16.6668 17.5602C16.0531 17.5602 15.5557 17.0628 15.5557 16.4491C15.5557 15.8355 16.0531 15.338 16.6668 15.338C17.2804 15.338 17.7779 15.8355 17.7779 16.4491Z" fill="white"/>
</svg>
