<svg width="24" height="25" viewBox="0 0 24 25" fill="none" xmlns="http://www.w3.org/2000/svg">
<mask id="path-1-inside-1_2014_174" fill="white">
<path fill-rule="evenodd" clip-rule="evenodd" d="M7.60293 9.32073L19.3417 21.0595L20.122 20.2791L15.1936 15.3507L20.5291 3.5022L8.30121 8.45831L3.86316 4.02026L3.08281 4.80061L7.19064 8.90844L7.17503 8.91477L7.60293 9.32073ZM12.3544 21.656L14.3568 17.2091L6.0815 9.35799L1.39434 11.2578C0.968607 11.4303 0.982603 12.0074 1.41625 12.1612L8.24703 14.5837C8.52528 14.6824 8.74478 14.8907 8.84879 15.1547L11.4021 21.6352C11.5642 22.0466 12.1725 22.0599 12.3544 21.656Z"/>
</mask>
<path fill-rule="evenodd" clip-rule="evenodd" d="M7.60293 9.32073L19.3417 21.0595L20.122 20.2791L15.1936 15.3507L20.5291 3.5022L8.30121 8.45831L3.86316 4.02026L3.08281 4.80061L7.19064 8.90844L7.17503 8.91477L7.60293 9.32073ZM12.3544 21.656L14.3568 17.2091L6.0815 9.35799L1.39434 11.2578C0.968607 11.4303 0.982603 12.0074 1.41625 12.1612L8.24703 14.5837C8.52528 14.6824 8.74478 14.8907 8.84879 15.1547L11.4021 21.6352C11.5642 22.0466 12.1725 22.0599 12.3544 21.656Z" fill="white"/>
<path d="M7.60293 9.32073L9.01714 7.90652L8.99855 7.88792L8.97947 7.86982L7.60293 9.32073ZM19.3417 21.0595L17.9275 22.4737L19.3417 23.8879L20.7559 22.4737L19.3417 21.0595ZM20.122 20.2791L21.5363 21.6934L22.9505 20.2791L21.5363 18.8649L20.122 20.2791ZM15.1936 15.3507L13.37 14.5296L12.8031 15.7886L13.7794 16.765L15.1936 15.3507ZM20.5291 3.5022L22.3527 4.32339L24.401 -0.225153L19.7778 1.64866L20.5291 3.5022ZM8.30121 8.45831L6.887 9.87253L7.82417 10.8097L9.05247 10.3119L8.30121 8.45831ZM3.86316 4.02026L5.27737 2.60605L3.86316 1.19184L2.44895 2.60605L3.86316 4.02026ZM3.08281 4.80061L1.6686 3.3864L0.254383 4.80061L1.6686 6.21483L3.08281 4.80061ZM7.19064 8.90844L7.9419 10.762L10.7389 9.62831L8.60485 7.49423L7.19064 8.90844ZM7.17503 8.91477L6.42377 7.06123L3.54524 8.22793L5.79849 10.3657L7.17503 8.91477ZM14.3568 17.2091L16.1804 18.0303L16.7635 16.7355L15.7334 15.7582L14.3568 17.2091ZM12.3544 21.656L10.5307 20.8348L10.5307 20.8348L12.3544 21.656ZM6.0815 9.35799L7.45804 7.90708L6.52377 7.0207L5.33024 7.50445L6.0815 9.35799ZM1.39434 11.2578L2.1456 13.1113H2.1456L1.39434 11.2578ZM1.41625 12.1612L0.747734 14.0461L0.747735 14.0461L1.41625 12.1612ZM8.24703 14.5837L7.57852 16.4687H7.57852L8.24703 14.5837ZM8.84879 15.1547L6.98802 15.8878L6.98802 15.8878L8.84879 15.1547ZM11.4021 21.6352L9.54137 22.3683L9.54137 22.3683L11.4021 21.6352ZM6.18872 10.7349L17.9275 22.4737L20.7559 19.6453L9.01714 7.90652L6.18872 10.7349ZM20.7559 22.4737L21.5363 21.6934L18.7078 18.8649L17.9275 19.6453L20.7559 22.4737ZM21.5363 18.8649L16.6079 13.9365L13.7794 16.765L18.7078 21.6934L21.5363 18.8649ZM17.0173 16.1719L22.3527 4.32339L18.7055 2.68101L13.37 14.5296L17.0173 16.1719ZM19.7778 1.64866L7.54995 6.60478L9.05247 10.3119L21.2804 5.35574L19.7778 1.64866ZM9.71542 7.0441L5.27737 2.60605L2.44895 5.43448L6.887 9.87253L9.71542 7.0441ZM2.44895 2.60605L1.6686 3.3864L4.49702 6.21483L5.27737 5.43448L2.44895 2.60605ZM1.6686 6.21483L5.77643 10.3227L8.60485 7.49423L4.49702 3.3864L1.6686 6.21483ZM6.43938 7.0549L6.42377 7.06123L7.92629 10.7683L7.9419 10.762L6.43938 7.0549ZM5.79849 10.3657L6.22639 10.7716L8.97947 7.86982L8.55157 7.46386L5.79849 10.3657ZM12.5332 16.3879L10.5307 20.8348L14.178 22.4771L16.1804 18.0303L12.5332 16.3879ZM4.70497 10.8089L12.9803 18.66L15.7334 15.7582L7.45804 7.90708L4.70497 10.8089ZM2.1456 13.1113L6.83277 11.2115L5.33024 7.50445L0.643074 9.40422L2.1456 13.1113ZM2.08476 10.2762C3.37007 10.7321 3.43965 12.5868 2.1456 13.1113L0.643074 9.40422C-1.50243 10.2738 -1.40486 13.2827 0.747734 14.0461L2.08476 10.2762ZM8.91554 12.6988L2.08476 10.2762L0.747735 14.0461L7.57852 16.4687L8.91554 12.6988ZM10.7096 14.4215C10.3838 13.5948 9.7139 12.9819 8.91554 12.6988L7.57852 16.4687C7.33666 16.3829 7.10572 16.1866 6.98802 15.8878L10.7096 14.4215ZM13.2629 20.902L10.7096 14.4215L6.98802 15.8878L9.54137 22.3683L13.2629 20.902ZM10.5307 20.8348C10.8198 20.1929 11.4373 19.9414 11.9145 19.9518C12.392 19.9622 13.0028 20.2417 13.2629 20.902L9.54137 22.3683C10.3572 24.4389 13.2755 24.4814 14.178 22.4771L10.5307 20.8348Z" fill="white" mask="url(#path-1-inside-1_2014_174)"/>
</svg>
