<svg width="24" height="24" viewBox="0 0 24 24" fill="none" xmlns="http://www.w3.org/2000/svg">
<path fill-rule="evenodd" clip-rule="evenodd" d="M3 12C3 11.0059 3.80589 10.2 4.8 10.2H19.2C20.1941 10.2 21 11.0059 21 12V20.1C21 21.0941 20.1941 21.9 19.2 21.9H4.8C3.80589 21.9 3 21.0941 3 20.1V12ZM19.2 12L4.8 12V20.1L19.2 20.1V12Z" fill="white"/>
<path fill-rule="evenodd" clip-rule="evenodd" d="M12 3.9C10.0118 3.9 8.39998 5.51177 8.39998 7.5V11.1C8.39998 11.5971 7.99703 12 7.49998 12C7.00292 12 6.59998 11.5971 6.59998 11.1V7.5C6.59998 4.51766 9.01764 2.1 12 2.1C14.9823 2.1 17.4 4.51766 17.4 7.5V11.1C17.4 11.5971 16.997 12 16.5 12C16.0029 12 15.6 11.5971 15.6 11.1V7.5C15.6 5.51177 13.9882 3.9 12 3.9Z" fill="white"/>
<rect x="11" y="14" width="2" height="4" fill="white"/>
</svg>
