<svg width="290" height="289" viewBox="0 0 290 289" fill="none" xmlns="http://www.w3.org/2000/svg">
<g filter="url(#filter0_d_2235_39868)">
<circle cx="150.217" cy="131.219" r="1.5" stroke="white"/>
</g>
<g filter="url(#filter1_d_2235_39868)">
<path d="M140.217 131.469C140.217 125.842 144.779 121.281 150.405 121.281" stroke="white"/>
</g>
<path fill-rule="evenodd" clip-rule="evenodd" d="M150.979 116.75L150.979 130.069L149.96 130.069L149.96 116.75L150.979 116.75Z" fill="white"/>
<path fill-rule="evenodd" clip-rule="evenodd" d="M150.469 116.801L149.058 118.212L148.681 117.835L150.281 116.235C150.385 116.131 150.554 116.131 150.658 116.235L152.258 117.835L151.881 118.212L150.469 116.801Z" fill="white"/>
<path fill-rule="evenodd" clip-rule="evenodd" d="M140.652 120.742L149.892 129.981L149.185 130.688L139.945 121.449L140.652 120.742Z" fill="white"/>
<path fill-rule="evenodd" clip-rule="evenodd" d="M140.363 121.049L140.363 123.045H139.83L139.83 120.783C139.83 120.635 139.949 120.516 140.097 120.516L142.359 120.516L142.359 121.049L140.363 121.049Z" fill="white"/>
<path fill-rule="evenodd" clip-rule="evenodd" d="M135.624 130.738L148.942 130.738L148.942 131.758L135.624 131.758L135.624 130.738Z" fill="white"/>
<path fill-rule="evenodd" clip-rule="evenodd" d="M135.675 131.248L137.086 132.66L136.709 133.037L135.109 131.437C135.005 131.333 135.005 131.164 135.109 131.06L136.709 129.46L137.086 129.837L135.675 131.248Z" fill="white"/>
<defs>
<filter id="filter0_d_2235_39868" x="119.896" y="104.673" width="60.643" height="60.643" filterUnits="userSpaceOnUse" color-interpolation-filters="sRGB">
<feFlood flood-opacity="0" result="BackgroundImageFix"/>
<feColorMatrix in="SourceAlpha" type="matrix" values="0 0 0 0 0 0 0 0 0 0 0 0 0 0 0 0 0 0 127 0" result="hardAlpha"/>
<feOffset dy="3.7762"/>
<feGaussianBlur stdDeviation="14.1608"/>
<feColorMatrix type="matrix" values="0 0 0 0 0 0 0 0 0 0 0 0 0 0 0 0 0 0 0.55 0"/>
<feBlend mode="normal" in2="BackgroundImageFix" result="effect1_dropShadow_2235_39868"/>
<feBlend mode="normal" in="SourceGraphic" in2="effect1_dropShadow_2235_39868" result="shape"/>
</filter>
<filter id="filter1_d_2235_39868" x="0.764938" y="0.355776" width="288.592" height="288.592" filterUnits="userSpaceOnUse" color-interpolation-filters="sRGB">
<feFlood flood-opacity="0" result="BackgroundImageFix"/>
<feColorMatrix in="SourceAlpha" type="matrix" values="0 0 0 0 0 0 0 0 0 0 0 0 0 0 0 0 0 0 127 0" result="hardAlpha"/>
<feOffset dy="18.527"/>
<feGaussianBlur stdDeviation="69.4762"/>
<feColorMatrix type="matrix" values="0 0 0 0 0 0 0 0 0 0 0 0 0 0 0 0 0 0 0.55 0"/>
<feBlend mode="normal" in2="BackgroundImageFix" result="effect1_dropShadow_2235_39868"/>
<feBlend mode="normal" in="SourceGraphic" in2="effect1_dropShadow_2235_39868" result="shape"/>
</filter>
</defs>
</svg>
