<svg width="24" height="24" viewBox="0 0 24 24" fill="none" xmlns="http://www.w3.org/2000/svg">
<path fill-rule="evenodd" clip-rule="evenodd" d="M20 7.5L12.2318 16L9 12.5641L9.80518 11.7599L12.2318 14.3398L19.1948 6.69582L20 7.5Z" fill="white"/>
<path fill-rule="evenodd" clip-rule="evenodd" d="M13 3.06633C14.5124 3.26867 15.8762 3.92362 16.9213 4.88915C17.4442 5.37233 17.8885 5.93485 18.2304 6.5572L16.749 8.11867C16.5076 7.45417 16.1002 6.85356 15.564 6.35814C14.6634 5.52606 13.4059 5 12 5C10.5941 5 9.33658 5.52606 8.43597 6.35814C7.5367 7.18899 7 8.31569 7 9.54348V18H17V13.7717V12.3901L19 10.2637V12.1576V14.7717V18.15H20V20.15H13.5V20.5C13.5 21.3284 12.8284 22 12 22C11.1716 22 10.5 21.3284 10.5 20.5V20.15H4V18.15H5V9.54348C5 7.70969 5.80644 6.06465 7.07875 4.88915C8.12379 3.92362 9.4876 3.26867 11 3.06633V1.71429H13V3.06633Z" fill="white"/>
</svg>
