<svg width="24" height="24" viewBox="0 0 24 24" fill="none" xmlns="http://www.w3.org/2000/svg">
<path fill-rule="evenodd" clip-rule="evenodd" d="M11.998 2.09955H11.0978V12.902H21.9002V12.0018C21.9002 9.37554 20.8569 6.85687 18.9999 4.99984C17.1429 3.14282 14.6242 2.09955 11.998 2.09955ZM12.8982 11.1016V3.95009C14.7157 4.15324 16.4212 4.96724 17.7268 6.27292C19.0325 7.5786 19.8465 9.28404 20.0497 11.1016H12.8982ZM3.97614 13.1358C3.46462 9.53121 5.42036 6.02808 8.75719 4.57194L8.0371 2.92181C3.95875 4.70154 1.56841 8.98314 2.19359 13.3888C2.81877 17.7944 6.30592 21.2419 10.7184 21.8168C15.1309 22.3916 19.3849 19.9525 21.1179 15.8541L19.4597 15.1529C18.0418 18.5062 14.5612 20.5018 10.951 20.0315C7.34077 19.5611 4.48765 16.7404 3.97614 13.1358Z" fill="white"/>
</svg>
