<svg width="24" height="24" viewBox="0 0 24 24" fill="none" xmlns="http://www.w3.org/2000/svg">
<mask id="path-1-outside-1_2726_42434" maskUnits="userSpaceOnUse" x="1.40625" y="0.255005" width="22" height="23" fill="black">
<rect fill="white" x="1.40625" y="0.255005" width="22" height="23"/>
<path fill-rule="evenodd" clip-rule="evenodd" d="M12.0087 3.255L16.5305 5.37097L16.5305 10.7714L20.625 12.6875L20.625 18.6507L16.1033 20.7667L12.0156 18.8538L7.92796 20.7667L3.40625 18.6507L3.40625 12.6875L7.48704 10.7779L7.48704 5.37097L12.0087 3.255Z"/>
</mask>
<path d="M16.5305 5.37097L18.5305 5.37097V4.09874L17.3781 3.5595L16.5305 5.37097ZM12.0087 3.255L12.8564 1.44354L12.0087 1.04685L11.1611 1.44354L12.0087 3.255ZM16.5305 10.7714L14.5305 10.7714V12.0437L15.6828 12.5829L16.5305 10.7714ZM20.625 12.6875L22.625 12.6875V11.4153L21.4727 10.876L20.625 12.6875ZM20.625 18.6507L21.4727 20.4622L22.625 19.9229V18.6507L20.625 18.6507ZM16.1033 20.7667L15.2556 22.5781L16.1033 22.9748L16.951 22.5781L16.1033 20.7667ZM12.0156 18.8538L12.8633 17.0423L12.0156 16.6457L11.1679 17.0423L12.0156 18.8538ZM7.92796 20.7667L7.08027 22.5781L7.92796 22.9748L8.77565 22.5781L7.92796 20.7667ZM3.40625 18.6507L1.40625 18.6507L1.40625 19.9229L2.55856 20.4622L3.40625 18.6507ZM3.40625 12.6875L2.55856 10.876L1.40625 11.4153L1.40625 12.6875L3.40625 12.6875ZM7.48704 10.7779L8.33473 12.5893L9.48704 12.0501L9.48704 10.7779L7.48704 10.7779ZM7.48704 5.37097L6.63935 3.5595L5.48704 4.09874L5.48704 5.37097L7.48704 5.37097ZM17.3781 3.5595L12.8564 1.44354L11.1611 5.06647L15.6828 7.18244L17.3781 3.5595ZM18.5305 10.7714L18.5305 5.37097L14.5305 5.37097L14.5305 10.7714L18.5305 10.7714ZM15.6828 12.5829L19.7773 14.499L21.4727 10.876L17.3781 8.95997L15.6828 12.5829ZM18.625 12.6875L18.625 18.6507L22.625 18.6507L22.625 12.6875L18.625 12.6875ZM19.7773 16.8392L15.2556 18.9552L16.951 22.5781L21.4727 20.4622L19.7773 16.8392ZM16.951 18.9552L12.8633 17.0423L11.1679 20.6653L15.2556 22.5781L16.951 18.9552ZM8.77565 22.5781L12.8633 20.6653L11.1679 17.0423L7.08027 18.9552L8.77565 22.5781ZM2.55856 20.4622L7.08027 22.5781L8.77565 18.9552L4.25394 16.8392L2.55856 20.4622ZM1.40625 12.6875L1.40625 18.6507L5.40625 18.6507L5.40625 12.6875L1.40625 12.6875ZM6.63934 8.96641L2.55856 10.876L4.25394 14.499L8.33473 12.5893L6.63934 8.96641ZM5.48704 5.37097L5.48704 10.7779L9.48704 10.7779L9.48704 5.37097L5.48704 5.37097ZM11.1611 1.44354L6.63935 3.5595L8.33473 7.18244L12.8564 5.06647L11.1611 1.44354Z" fill="white" mask="url(#path-1-outside-1_2726_42434)"/>
<path d="M12.0642 7.53125L7.45059 5.39443L12.0642 3.21875L16.5807 5.33615L12.0642 7.53125Z" fill="white"/>
<path d="M16.5329 15.0625L11.9193 12.9257L16.5329 10.75L21.0494 12.8674L16.5329 15.0625Z" fill="white"/>
<path d="M7.50169 15.0625L2.88809 12.9257L7.50169 10.75L12.0182 12.8674L7.50169 15.0625Z" fill="white"/>
<path d="M7.94755 14.4911L4.92119 13.0895L7.94755 11.6623L10.9102 13.0512L7.94755 14.4911Z" fill="white"/>
</svg>
