<svg width="24" height="24" viewBox="0 0 24 24" fill="none" xmlns="http://www.w3.org/2000/svg">
<path fill-rule="evenodd" clip-rule="evenodd" d="M8.33333 17.5C8.33333 19.525 9.97496 21.1667 12 21.1667C12.9725 21.1667 13.9051 20.7804 14.5927 20.0927C15.2804 19.4051 15.6667 18.4725 15.6667 17.5L15.6667 14.75L17.5 14.75L17.5 17.5C17.5 18.9587 16.9205 20.3576 15.8891 21.3891C14.8576 22.4205 13.4587 23 12 23C8.96243 23 6.5 20.5376 6.5 17.5L6.5 14.75L8.33333 14.75L8.33333 17.5ZM8.33333 6.5L8.33333 9.25L6.5 9.25L6.5 6.5C6.5 5.04131 7.07946 3.64236 8.11091 2.61091C9.14236 1.57946 10.5413 1 12 1C15.0376 1 17.5 3.46243 17.5 6.5L17.5 9.25L15.6667 9.25L15.6667 6.5C15.6667 4.47496 14.025 2.83333 12 2.83333C11.0275 2.83333 10.0949 3.21964 9.40727 3.90728C8.71964 4.59491 8.33333 5.52754 8.33333 6.5Z" fill="white"/>
</svg>
