<svg width="24" height="24" viewBox="0 0 24 24" fill="none" xmlns="http://www.w3.org/2000/svg">
<path fill-rule="evenodd" clip-rule="evenodd" d="M13 5C13 5.55228 12.5523 6 12 6C11.4477 6 11 5.55228 11 5C11 4.44772 11.4477 4 12 4C12.5523 4 13 4.44772 13 5ZM15 5C15 5.61838 14.8129 6.19306 14.4922 6.67053L17.3295 9.50777C17.8069 9.1871 18.3816 9 19 9C20.6569 9 22 10.3431 22 12C22 13.6569 20.6569 15 19 15C18.2835 15 17.6256 14.7488 17.1097 14.3297L14.3297 17.1097C14.7488 17.6256 15 18.2835 15 19C15 20.6569 13.6569 22 12 22C10.3431 22 9 20.6569 9 19C9 18.1829 9.32666 17.4421 9.85651 16.9011L7.09892 14.1435C6.55789 14.6733 5.81709 15 5 15C3.34315 15 2 13.6569 2 12C2 10.3431 3.34315 9 5 9C5.7197 9 6.38021 9.25343 6.89716 9.67592L9.67592 6.89716C9.25343 6.38021 9 5.7197 9 5C9 3.34315 10.3431 2 12 2C13.6569 2 15 3.34315 15 5ZM13.5774 16.4477L16.4477 13.5774C16.1639 13.1191 16 12.5787 16 12C16 11.3227 16.2245 10.6978 16.6031 10.1956L13.8044 7.39691C13.3022 7.77553 12.6773 8 12 8C11.4245 8 10.8869 7.83797 10.4303 7.55704L7.55704 10.4303C7.83797 10.8869 8 11.4245 8 12C8 12.475 7.8896 12.9242 7.69306 13.3234L10.6766 16.3069C11.0758 16.1104 11.525 16 12 16C12.5787 16 13.1191 16.1639 13.5774 16.4477ZM13 19C13 19.5523 12.5523 20 12 20C11.4477 20 11 19.5523 11 19C11 18.4477 11.4477 18 12 18C12.5523 18 13 18.4477 13 19ZM19 13C19.5523 13 20 12.5523 20 12C20 11.4477 19.5523 11 19 11C18.4477 11 18 11.4477 18 12C18 12.5523 18.4477 13 19 13ZM6 12C6 12.5523 5.55228 13 5 13C4.44772 13 4 12.5523 4 12C4 11.4477 4.44772 11 5 11C5.55228 11 6 11.4477 6 12Z" fill="white"/>
</svg>
