<svg width="24" height="25" viewBox="0 0 24 25" fill="none" xmlns="http://www.w3.org/2000/svg">
<path fill-rule="evenodd" clip-rule="evenodd" d="M2.4375 12.125C2.4375 6.84378 6.71878 2.5625 12 2.5625C17.2812 2.5625 21.5625 6.84378 21.5625 12.125C21.5625 17.4062 17.2812 21.6875 12 21.6875C6.71878 21.6875 2.4375 17.4062 2.4375 12.125ZM12 4.30114C7.679 4.30114 4.17614 7.804 4.17614 12.125C4.17614 16.446 7.679 19.9489 12 19.9489C16.321 19.9489 19.8239 16.446 19.8239 12.125C19.8239 7.804 16.321 4.30114 12 4.30114Z" fill="white"/>
<path d="M12 6.20278C13.1713 6.20278 14.3163 6.55011 15.2902 7.20086C16.2641 7.8516 17.0232 8.77653 17.4714 9.85867C17.9197 10.9408 18.0369 12.1316 17.8084 13.2804C17.5799 14.4292 17.0159 15.4844 16.1876 16.3127C15.3594 17.1409 14.3042 17.7049 13.1554 17.9334C12.0066 18.162 10.8158 18.0447 9.73365 17.5964C8.6515 17.1482 7.72658 16.3891 7.07583 15.4152C6.42509 14.4413 6.07776 13.2963 6.07776 12.125L12 12.125L12 6.20278Z" fill="white"/>
</svg>
