<svg width="24" height="24" viewBox="0 0 24 24" fill="none" xmlns="http://www.w3.org/2000/svg">
<path fill-rule="evenodd" clip-rule="evenodd" d="M4 7L7 13H1L4 7Z" fill="white"/>
<path fill-rule="evenodd" clip-rule="evenodd" d="M14.7711 12.4088L10.772 14.922C10.5399 15.0679 10.2301 15.0031 10.0801 14.7773C10.0278 14.6986 10 14.6069 10 14.5132V9.48676C10 9.21793 10.2241 9 10.5004 9C10.5968 9 10.6911 9.02705 10.772 9.07791L14.7711 11.5911C15.0032 11.737 15.0698 12.0383 14.9198 12.2641C14.8814 12.3221 14.8306 12.3714 14.7711 12.4088Z" fill="white"/>
<path fill-rule="evenodd" clip-rule="evenodd" d="M12 3C16.9706 3 21 7.02944 21 12C21 16.9706 16.9706 21 12 21C7.02944 21 3 16.9706 3 12H5C5 15.866 8.13401 19 12 19C15.866 19 19 15.866 19 12C19 8.13401 15.866 5 12 5V3Z" fill="white"/>
</svg>
