<svg width="24" height="24" viewBox="0 0 24 24" fill="none" xmlns="http://www.w3.org/2000/svg">
<path d="M3 7L3 8L4 8L4 7L3 7Z" fill="white"/>
<path d="M5 7L5 8L6 8L6 7L5 7Z" fill="white"/>
<path d="M7 7L7 8L8 8L8 7L7 7Z" fill="white"/>
<path d="M3 5L3 6L4 6L4 5L3 5Z" fill="white"/>
<path d="M5 5L5 6L6 6L6 5L5 5Z" fill="white"/>
<path d="M13 3L13 4L14 4L14 3L13 3Z" fill="white"/>
<path d="M11 3L11 4L12 4L12 3L11 3Z" fill="white"/>
<path d="M9 3L9 4L10 4L10 3L9 3Z" fill="white"/>
<path d="M9 5L9 6L10 6L10 5L9 5Z" fill="white"/>
<path d="M9 7L9 8L10 8L10 7L9 7Z" fill="white"/>
<path d="M7 3L7 4L8 4L8 3L7 3Z" fill="white"/>
<path d="M7 5L7 6L8 6L8 5L7 5Z" fill="white"/>
<path d="M5 3L5 4L6 4L6 3L5 3Z" fill="white"/>
<path d="M3 3L3 4L4 4L4 3L3 3Z" fill="white"/>
<path d="M3 9L3 10L4 10L4 9L3 9Z" fill="white"/>
<path d="M5 9L5 10L6 10L6 9L5 9Z" fill="white"/>
<path d="M7 9L7 10L8 10L8 9L7 9Z" fill="white"/>
<path d="M9 9L9 10L10 10L10 9L9 9Z" fill="white"/>
<path d="M3 11L3 12L4 12L4 11L3 11Z" fill="white"/>
<path d="M3 13L3 14L4 14L4 13L3 13Z" fill="white"/>
<path d="M11.5 20L11.5 21L12.5 21L12.5 20L11.5 20Z" fill="white"/>
<path d="M18 8H19V7V4H20V20H4V19H7H8V18V14H13H14V13V8H18Z" stroke="white" stroke-width="2"/>
</svg>
