<svg width="24" height="24" viewBox="0 0 24 24" fill="none" xmlns="http://www.w3.org/2000/svg">
<path fill-rule="evenodd" clip-rule="evenodd" d="M14.4721 4.39157C10.2701 3.02625 5.75683 5.32586 4.39151 9.52789C3.02619 13.7299 5.32579 18.2432 9.52783 19.6085C13.7299 20.9738 18.2431 18.6742 19.6084 14.4722L17.7063 13.8541C16.6823 17.0056 13.2974 18.7304 10.1459 17.7064C6.99434 16.6824 5.26963 13.2974 6.29362 10.1459C7.31762 6.9944 10.7025 5.26969 13.8541 6.29368C14.7489 6.58444 15.5287 7.06526 16.1634 7.6774L14.2 9.2194L20.2 11L19.5725 5L17.7475 6.43331C16.8681 5.52382 15.7594 4.80983 14.4721 4.39157Z" fill="white"/>
</svg>
