<svg width="24" height="25" viewBox="0 0 24 25" fill="none" xmlns="http://www.w3.org/2000/svg">
<path fill-rule="evenodd" clip-rule="evenodd" d="M5.84384 3.61254L5.20655 3.91755L5.70615 4.41712L8.70711 7.41789L7.29289 8.83211L4.29165 5.83191L3.79198 5.33241L3.4871 5.96976C3.17463 6.62301 3 7.35434 3 8.125C3 9.50557 3.56019 10.7563 4.46447 11.6605C5.36874 12.5648 6.61943 13.125 8 13.125C8.64417 13.125 9.26095 13.0031 9.82764 12.7804L11.514 14.467L11.4905 14.4905L17.1598 20.1598C17.5503 20.5503 18.1835 20.5503 18.574 20.1598L20.0348 18.699C20.4253 18.3085 20.4253 17.6753 20.0348 17.2848L14.3655 11.6155L14.3425 11.6385L12.6558 9.95162C12.8782 9.38521 13 8.76878 13 8.125C13 6.74443 12.4398 5.49374 11.5355 4.58947C10.6313 3.68519 9.38057 3.125 8 3.125C7.22898 3.125 6.49732 3.29979 5.84384 3.61254ZM13.6354 12.3456L11.7082 10.4182L11.458 10.168L11.6108 9.84879C11.8602 9.32755 12 8.74336 12 8.125C12 7.02029 11.5528 6.02098 10.8284 5.29657C10.104 4.57217 9.10471 4.125 8 4.125C7.6412 4.125 7.29388 4.1721 6.96365 4.26037L9.76777 7.06432L10.1213 7.41787L9.76778 7.77144L7.64651 9.89271L7.29302 10.2462L6.93946 9.89277L4.13516 7.08944C4.04702 7.41943 4 7.76648 4 8.125C4 9.22971 4.44717 10.229 5.17157 10.9534C5.89598 11.6778 6.89529 12.125 8 12.125C8.61871 12.125 9.20321 11.9851 9.72468 11.7354L10.0439 11.5825L10.2942 11.8328L12.2211 13.7599L13.6354 12.3456Z" fill="white"/>
</svg>
