<svg width="24" height="24" viewBox="0 0 24 24" fill="none" xmlns="http://www.w3.org/2000/svg">
<path fill-rule="evenodd" clip-rule="evenodd" d="M8.56682 5.7683C9.73734 5.7683 10.6862 4.8194 10.6862 3.64888C10.6862 2.47835 9.73734 1.52945 8.56682 1.52945C7.39629 1.52945 6.44739 2.47835 6.44739 3.64888C6.44739 3.67588 6.44789 3.70276 6.44889 3.72951C3.75199 5.50914 1.96973 8.56812 1.96973 12.0446C1.96973 13.6232 2.33789 15.1187 2.99397 16.4473L4.78724 15.5618C4.26413 14.5025 3.96973 13.3093 3.96973 12.0446C3.96973 9.30638 5.35277 6.89005 7.46202 5.45793C7.78373 5.65482 8.16202 5.7683 8.56682 5.7683ZM7.67793 4.32942C7.88254 4.59626 8.20458 4.7683 8.56682 4.7683C9.18506 4.7683 9.68624 4.26712 9.68624 3.64888C9.68624 3.03063 9.18506 2.52945 8.56682 2.52945C7.94857 2.52945 7.44739 3.03063 7.44739 3.64888C7.44739 3.78511 7.47172 3.91566 7.51629 4.03642L7.67793 4.32942ZM20.8847 12.0446H20.8764C20.26 12.0468 19.7611 12.5471 19.7611 13.164C19.7611 13.7822 20.2623 14.2834 20.8805 14.2834C21.4988 14.2834 22 13.7822 22 13.164C22 12.5471 21.501 12.0468 20.8847 12.0446ZM21.8524 11.28C21.4737 6.15472 17.3178 2 12 2V4C16.1734 4 19.4914 7.22984 19.8487 11.3123C19.1998 11.6746 18.7611 12.3681 18.7611 13.164C18.7611 14.3345 19.71 15.2834 20.8805 15.2834C22.0511 15.2834 23 14.3345 23 13.164C23 12.3438 22.534 11.6324 21.8524 11.28ZM11.9251 22C15.6586 22 18.6696 19.9863 20.3695 16.9939L18.6305 16.0061C17.2512 18.4341 14.8712 20 11.9251 20C10.6602 20 9.4661 19.7055 8.40572 19.1814C8.43304 19.0456 8.44738 18.905 8.44738 18.7612C8.44738 17.5906 7.49848 16.6417 6.32795 16.6417C5.15743 16.6417 4.20853 17.5906 4.20853 18.7612C4.20853 19.9317 5.15743 20.8806 6.32795 20.8806C6.5928 20.8806 6.84629 20.832 7.08002 20.7433C8.51463 21.5439 10.1679 22 11.9251 22ZM6.32795 19.8806C6.9462 19.8806 7.44738 19.3794 7.44738 18.7612C7.44738 18.1429 6.9462 17.6417 6.32795 17.6417C5.70971 17.6417 5.20853 18.1429 5.20853 18.7612C5.20853 19.3794 5.70971 19.8806 6.32795 19.8806Z" fill="white"/>
<path fill-rule="evenodd" clip-rule="evenodd" d="M12 7.67273L15.7475 9.83637V14.1636L12 16.3273L8.25247 14.1636V9.83637L12 7.67273ZM9.74755 10.6996V13.3005L12 14.6009L14.2524 13.3005V10.6996L12 9.3991L9.74755 10.6996Z" fill="white"/>
</svg>
