<svg width="24" height="24" viewBox="0 0 24 24" fill="none" xmlns="http://www.w3.org/2000/svg">
<path fill-rule="evenodd" clip-rule="evenodd" d="M10.3461 5.15385C7.4785 5.15385 5.15382 7.47853 5.15382 10.3462C5.15382 13.2138 7.4785 15.5385 10.3461 15.5385C13.2138 15.5385 15.5384 13.2138 15.5384 10.3462C15.5384 7.47853 13.2138 5.15385 10.3461 5.15385ZM2.84613 10.3462C2.84613 6.20403 6.20399 2.84616 10.3461 2.84616C14.4883 2.84616 17.8461 6.20403 17.8461 10.3462C17.8461 14.4883 14.4883 17.8462 10.3461 17.8462C6.20399 17.8462 2.84613 14.4883 2.84613 10.3462Z" fill="white"/>
<path fill-rule="evenodd" clip-rule="evenodd" d="M19.2929 20.7071L14.8314 16.2456L16.2456 14.8314L20.7071 19.2929L19.2929 20.7071Z" fill="white"/>
</svg>
