<svg width="24" height="24" viewBox="0 0 24 24" fill="none" xmlns="http://www.w3.org/2000/svg">
<path fill-rule="evenodd" clip-rule="evenodd" d="M12 4C7.58172 4 4 7.58172 4 12C4 16.4183 7.58172 20 12 20C16.4183 20 20 16.4183 20 12C20 7.58172 16.4183 4 12 4ZM2 12C2 6.47715 6.47715 2 12 2C17.5228 2 22 6.47715 22 12C22 17.5228 17.5228 22 12 22C6.47715 22 2 17.5228 2 12Z" fill="white"/>
<path fill-rule="evenodd" clip-rule="evenodd" d="M10.7289 11.5912L14.728 9.07797C14.9601 8.93208 15.2699 8.99686 15.4199 9.22266C15.4722 9.30138 15.5 9.3931 15.5 9.48682L15.5 14.5132C15.5 14.7821 15.2759 15 14.9996 15C14.9032 15 14.8089 14.9729 14.728 14.9221L10.7289 12.4089C10.4968 12.263 10.4302 11.9617 10.5802 11.7359C10.6186 11.6779 10.6694 11.6286 10.7289 11.5912Z" fill="white"/>
<rect x="8.5" y="9" width="2" height="6" fill="white"/>
</svg>
