<svg width="24" height="24" viewBox="0 0 24 24" fill="none" xmlns="http://www.w3.org/2000/svg">
<mask id="mask0_23_172" style="mask-type:alpha" maskUnits="userSpaceOnUse" x="0" y="0" width="24" height="24">
<path fill-rule="evenodd" clip-rule="evenodd" d="M0 0H24V24H0V0Z" fill="#BAC4E2"/>
</mask>
<g mask="url(#mask0_23_172)">
<path fill-rule="evenodd" clip-rule="evenodd" d="M4.28363 5.6164L4.95667 7.56786C5.1225 8.04868 5.11022 8.57305 4.92206 9.04557C4.73447 9.51666 4.3771 9.90031 3.92048 10.1208L2.04216 11.0278V12.9722L3.90021 13.8761C4.35897 14.0993 4.71825 14.4852 4.90806 14.9587C5.09836 15.4335 5.11201 15.9607 4.94655 16.4447L4.28363 18.3836L5.65856 19.7585L7.58883 19.0989C8.07525 18.9327 8.60539 18.9481 9.0813 19.1424C9.55669 19.3365 9.94408 19.6986 10.1697 20.1598L11.0699 22L13.0144 22L13.9175 20.146C14.1411 19.6868 14.5267 19.3264 15 19.1343C15.474 18.9418 16.0016 18.9272 16.4856 19.0932L18.4258 19.7585L19.8007 18.3836L19.1519 16.4691C18.9855 15.9779 19.0048 15.4427 19.2063 14.9648C19.408 14.4863 19.775 14.0961 20.2403 13.8655L22.0422 12.9722V11.0278L20.2269 10.1315C19.7635 9.90269 19.3982 9.51424 19.1982 9.03759C18.9985 8.56142 18.98 8.02857 19.1463 7.53971L19.8007 5.6164L18.4258 4.24147L16.5098 4.89243C16.0187 5.05927 15.4834 5.03894 15.0064 4.83534C14.5282 4.63125 14.1386 4.26336 13.9073 3.79776L13.0144 2L11.0699 2L10.1823 3.77678C9.94821 4.24534 9.55567 4.6158 9.07436 4.82238C8.59438 5.0284 8.05525 5.05 7.56033 4.88303L5.65856 4.24147L4.28363 5.6164ZM12.0398 4.53383L11.9714 4.67061C11.526 5.56221 10.7791 6.26714 9.8632 6.66025C8.93047 7.06059 7.88279 7.10256 6.92103 6.7781L6.78395 6.73186L6.84738 6.91577C7.16942 7.84951 7.14556 8.86783 6.78017 9.78546C6.40745 10.7215 5.69739 11.4837 4.79013 11.9218L4.62189 12.0031L4.77511 12.0776C5.68064 12.5181 6.3898 13.2799 6.76447 14.2146C7.13293 15.1338 7.15937 16.1547 6.83899 17.0917L6.78098 17.2614L6.94207 17.2063C7.88564 16.8839 8.91404 16.9139 9.83722 17.2908C10.7671 17.6704 11.5249 18.3787 11.9663 19.281L12.0404 19.4324L12.1194 19.2702C12.5592 18.3674 13.3172 17.659 14.2476 17.2812C15.1687 16.9072 16.194 16.8789 17.1343 17.2013L17.3086 17.2611L17.2577 17.111C16.9343 16.1565 16.9719 15.1165 17.3634 14.1879C17.7514 13.2675 18.4571 12.5172 19.352 12.0736L19.4971 12.0017L19.3415 11.9249C18.446 11.4827 17.7402 10.7322 17.3539 9.81126C16.9651 8.88435 16.9292 7.84712 17.2529 6.89552L17.308 6.73351L17.1532 6.78611C16.1955 7.11149 15.1515 7.07184 14.2212 6.67477C13.3054 6.28386 12.559 5.57922 12.1161 4.68743L12.0398 4.53383Z" fill="white"/>
<path fill-rule="evenodd" clip-rule="evenodd" d="M12 14C12.5557 14 13.0443 13.7891 13.3976 13.4439C13.767 13.0829 14 12.5656 14 12C14 11.4703 13.7962 10.9731 13.4777 10.6242C13.1259 10.2388 12.6079 10 12 10C11.4553 10 10.9392 10.2453 10.5574 10.6427C10.204 11.0107 10 11.4718 10 12C10 12.5652 10.2335 13.0662 10.6208 13.4351C10.9892 13.7861 11.4761 14 12 14ZM14.0964 14.1592C13.5556 14.6876 12.8158 15 12 15C11.1979 15 10.4693 14.672 9.931 14.1592C9.35744 13.6127 9 12.8547 9 12C9 11.1934 9.31835 10.4891 9.83627 9.94996C10.3822 9.38169 11.1498 9 12 9C12.8778 9 13.6676 9.34901 14.2162 9.94996C14.7031 10.4833 15 11.221 15 12C15 12.841 14.6539 13.6144 14.0964 14.1592Z" fill="white"/>
</g>
</svg>
