<svg width="26" height="29" viewBox="0 0 26 29" fill="none" xmlns="http://www.w3.org/2000/svg">
<g filter="url(#filter0_d_25_547)">
<path fill-rule="evenodd" clip-rule="evenodd" d="M13 1.67364L17.5217 6.10558L16.0933 7.50555L13 4.47358L9.90666 7.50555L8.47835 6.10558L13 1.67364Z" fill="white"/>
<path fill-rule="evenodd" clip-rule="evenodd" d="M12 15.25V3.6389H14V15.25H12Z" fill="white"/>
<path fill-rule="evenodd" clip-rule="evenodd" d="M6 12V19H20V12H17.5714V10H19.9994C21.1033 10 22 10.8947 22 12V19C22 20.1046 21.1046 21 20 21H6C4.89543 21 4 20.1046 4 19V12C4 10.8947 4.89674 10 6.00057 10H8.42857V12H6Z" fill="white"/>
</g>
<defs>
<filter id="filter0_d_25_547" x="-3" y="0" width="32" height="32" filterUnits="userSpaceOnUse" color-interpolation-filters="sRGB">
<feFlood flood-opacity="0" result="BackgroundImageFix"/>
<feColorMatrix in="SourceAlpha" type="matrix" values="0 0 0 0 0 0 0 0 0 0 0 0 0 0 0 0 0 0 127 0" result="hardAlpha"/>
<feOffset dy="4"/>
<feGaussianBlur stdDeviation="2"/>
<feComposite in2="hardAlpha" operator="out"/>
<feColorMatrix type="matrix" values="0 0 0 0 0 0 0 0 0 0 0 0 0 0 0 0 0 0 0.25 0"/>
<feBlend mode="normal" in2="BackgroundImageFix" result="effect1_dropShadow_25_547"/>
<feBlend mode="normal" in="SourceGraphic" in2="effect1_dropShadow_25_547" result="shape"/>
</filter>
</defs>
</svg>
