<svg width="24" height="24" viewBox="0 0 24 24" fill="none" xmlns="http://www.w3.org/2000/svg">
<path fill-rule="evenodd" clip-rule="evenodd" d="M2.30442 8.47147C3.15092 7.55616 4.35302 7.02777 5.75231 7.02777C7.45551 7.02777 9.01665 7.8054 10.4219 9.17682L9.06376 10.5684C7.91065 9.44299 6.81145 8.97222 5.75231 8.97222C4.86371 8.97222 4.18965 9.2968 3.73197 9.79169C3.26689 10.2946 2.97222 11.0326 2.97222 11.9349C2.97222 13.6031 4.3618 14.8055 5.75231 14.8055C6.85958 14.8055 7.95018 14.322 9.04095 13.184L9.07076 13.1529L14.1648 8.70308L14.1667 8.70147C15.3977 7.63161 16.7465 7.02777 18.1971 7.02777C20.9595 7.02777 22.9722 9.09874 22.9722 11.9349C22.9722 14.8655 20.4659 16.75 18.1971 16.75C16.3963 16.75 14.8368 16.0117 13.5576 14.6253L14.9867 13.3068C15.9363 14.336 16.9935 14.8055 18.1971 14.8055C19.5386 14.8055 21.0278 13.6507 21.0278 11.9349C21.0278 10.1246 19.8382 8.97222 18.1971 8.97222C17.3263 8.97222 16.4136 9.32505 15.443 10.1684C15.4427 10.1686 15.4424 10.1689 15.4422 10.1691L10.414 14.5614C9.05683 15.9648 7.49743 16.75 5.75231 16.75C3.33613 16.75 1.02777 14.7246 1.02777 11.9349C1.02777 10.6082 1.46531 9.37879 2.30442 8.47147Z" fill="white"/>
</svg>
