<svg width="24" height="24" viewBox="0 0 24 24" fill="none" xmlns="http://www.w3.org/2000/svg">
<path d="M10.5808 19.7727L10.5811 19.7731C10.7262 19.9184 10.9231 20 11.1283 20C11.3335 20 11.5303 19.9184 11.6754 19.7731L11.6762 19.7723L19 12.4551V5H11.547L4.22501 12.3239C4.22473 12.3242 4.22446 12.3245 4.22418 12.3247C3.92523 12.6264 3.92527 13.1129 4.22429 13.4146C4.22453 13.4148 4.22477 13.4151 4.22501 13.4153L10.5808 19.7727Z" stroke="white" stroke-width="2" stroke-linecap="round" stroke-linejoin="round"/>
<path d="M14.6923 10.3846C15.287 10.3846 15.7692 9.90247 15.7692 9.3077C15.7692 8.71293 15.287 8.23077 14.6923 8.23077C14.0975 8.23077 13.6154 8.71293 13.6154 9.3077C13.6154 9.90247 14.0975 10.3846 14.6923 10.3846Z" fill="white"/>
</svg>
