<svg width="24" height="25" viewBox="0 0 24 25" fill="none" xmlns="http://www.w3.org/2000/svg">
<circle cx="7.63582" cy="12.1384" r="6.14418" stroke="white" stroke-width="2"/>
<path fill-rule="evenodd" clip-rule="evenodd" d="M2.08411 10.4105C2.08411 10.4105 5.61813 9.94552 6.06215 7.13997C7.09698 7.79701 7.76407 10.6227 13.1875 9.49477C12.7863 8.96677 12.8637 7.49383 11.7384 6.70066C11.1207 6.26529 9.14009 5.50397 7.79431 5.50397C6.44852 5.50397 5.02289 5.92103 3.65883 6.70066C2.29477 7.4803 2.08411 10.4105 2.08411 10.4105Z" fill="white"/>
<path d="M10.0901 13.5877C10.6989 13.5877 11.1924 13.0942 11.1924 12.4854C11.1924 11.8766 10.6989 11.3831 10.0901 11.3831C9.48132 11.3831 8.98779 11.8766 8.98779 12.4854C8.98779 13.0942 9.48132 13.5877 10.0901 13.5877Z" fill="white"/>
<path d="M5.68082 13.5877C6.28961 13.5877 6.78314 13.0942 6.78314 12.4854C6.78314 11.8766 6.28961 11.3831 5.68082 11.3831C5.07202 11.3831 4.57849 11.8766 4.57849 12.4854C4.57849 13.0942 5.07202 13.5877 5.68082 13.5877Z" fill="white"/>
<path d="M18.4339 13.5877C19.0427 13.5877 19.5362 13.0942 19.5362 12.4854C19.5362 11.8766 19.0427 11.3831 18.4339 11.3831C17.8251 11.3831 17.3315 11.8766 17.3315 12.4854C17.3315 13.0942 17.8251 13.5877 18.4339 13.5877Z" fill="white"/>
<path fill-rule="evenodd" clip-rule="evenodd" d="M17.2059 7.97059C17.611 8.8466 18.1261 9.96024 20.8144 9.72465C21.2368 10.4708 21.4779 11.3331 21.4779 12.2517C21.4779 15.0892 19.1776 17.3894 16.3401 17.3894C15.5548 17.3894 14.8118 17.2138 14.1471 16.8995C13.6827 17.5049 13.177 18.0001 12.7171 18.4027C13.7794 19.0296 15.0187 19.3894 16.3401 19.3894C20.2822 19.3894 23.4779 16.1938 23.4779 12.2517C23.4779 10.2622 22.6639 8.46286 21.3509 7.16843C21.219 6.99761 21.0594 6.83882 20.8634 6.70066C20.8118 6.66426 20.7506 6.62557 20.6811 6.58524C19.4783 5.66243 17.9732 5.11395 16.3401 5.11395C15.1102 5.11395 13.9517 5.42567 12.9408 5.97407C13.4424 6.45341 14.0143 7.14799 14.5084 7.98284C14.6929 8.29464 14.8686 8.62931 15.0266 8.98319C15.8297 8.70138 16.625 8.25088 16.625 7.125C16.8937 7.29558 17.0406 7.61332 17.2059 7.97059ZM14.0665 9.28738C13.9381 9.01009 13.797 8.74425 13.6478 8.49217C13.1233 7.60589 12.5182 6.92161 12.0694 6.53214C11.9932 6.58909 11.9182 6.64753 11.8444 6.7074L12.0731 6.98908C11.6544 7.17418 11.3279 7.46795 11.6729 8.25278C12.0319 9.0697 12.1548 9.09467 12.5921 9.18355C12.8197 9.2298 13.1324 9.29335 13.6077 9.49477C13.7262 9.41554 13.8843 9.34981 14.0665 9.28738ZM11.8744 17.8069C12.3322 17.4192 12.8342 16.9496 13.2888 16.374L13.2797 16.3789L13.2659 16.3687L13.2439 16.3982L11.5942 17.2867L11.8744 17.8069Z" fill="white"/>
</svg>
