<svg width="24" height="24" viewBox="0 0 24 24" fill="none" xmlns="http://www.w3.org/2000/svg">
<path fill-rule="evenodd" clip-rule="evenodd" d="M21 4.01562H3V19.9844H21V4.01562ZM3 3.01562C2.44772 3.01562 2 3.46334 2 4.01563V19.9844C2 20.5367 2.44772 20.9844 3 20.9844H21C21.5523 20.9844 22 20.5367 22 19.9844V4.01562C22 3.46334 21.5523 3.01562 21 3.01562H3Z" fill="white"/>
<path d="M8.78403 16.9641L10.1949 17.4413V18.375H5.63031V17.4621L7.10343 16.9434L11.0248 5.63563L12.6432 5.36591L16.8966 16.9434L18.3697 17.4413V18.375H12.6017V17.4413L13.9503 17.0264L13.3486 15.2005H9.36498L8.78403 16.9641ZM11.2738 9.59853L9.7592 14.0801H12.9337L11.2738 9.59853Z" fill="white"/>
</svg>
