<svg width="24" height="24" viewBox="0 0 24 24" fill="none" xmlns="http://www.w3.org/2000/svg">
<path fill-rule="evenodd" clip-rule="evenodd" d="M19 12C19 15.866 15.866 19 12 19C8.13401 19 5 15.866 5 12C5 8.13401 8.13401 5 12 5C15.866 5 19 8.13401 19 12ZM21 12C21 16.9706 16.9706 21 12 21C7.02944 21 3 16.9706 3 12C3 7.02944 7.02944 3 12 3C16.9706 3 21 7.02944 21 12ZM7 12.8892V11.8591L11.5502 11.6368L11.8007 7H12.9987L13.2943 12.2667C13.2981 12.3 13.3 12.3339 13.3 12.3683C13.3 12.3683 13.3 12.3683 13.3 12.3683C13.3 12.8624 12.8995 13.263 12.4053 13.263C12.2269 13.263 12.0607 13.2107 11.9211 13.1207L7 12.8892Z" fill="white"/>
</svg>
