<svg width="24" height="24" viewBox="0 0 24 24" fill="none" xmlns="http://www.w3.org/2000/svg">
<path fill-rule="evenodd" clip-rule="evenodd" d="M12 14.0909L20.1818 14.0909L20.1818 15.9091L12 15.9091L12 14.0909Z" fill="white"/>
<path fill-rule="evenodd" clip-rule="evenodd" d="M3.81818 14.0909L8.36363 14.0909L8.36363 15.9091L3.81818 15.9091L3.81818 14.0909Z" fill="white"/>
<path fill-rule="evenodd" clip-rule="evenodd" d="M15.6364 6.81822L20.1818 6.81822L20.1818 8.6364L15.6364 8.6364L15.6364 6.81822Z" fill="white"/>
<path fill-rule="evenodd" clip-rule="evenodd" d="M3.81818 6.81822L12 6.81822L12 8.6364L3.81818 8.6364L3.81818 6.81822Z" fill="white"/>
<path fill-rule="evenodd" clip-rule="evenodd" d="M9.27268 12.2727L9.27268 17.7273L7.4545 17.7273L7.4545 12.2727L9.27268 12.2727Z" fill="white"/>
<path fill-rule="evenodd" clip-rule="evenodd" d="M16.5454 5L16.5454 10.4545L14.7273 10.4545L14.7273 5L16.5454 5Z" fill="white"/>
</svg>
