<svg width="24" height="24" viewBox="0 0 24 24" fill="none" xmlns="http://www.w3.org/2000/svg">
<path fill-rule="evenodd" clip-rule="evenodd" d="M14.4722 4.19518C10.593 2.93475 6.45011 4.79732 4.76096 8.39669L6.57151 9.24635C7.8376 6.54846 10.946 5.15238 13.8542 6.0973C14.749 6.38805 15.5288 6.86886 16.1634 7.48099L14.2 9.02305L20.2 10.8037L19.5725 4.80366L17.7475 6.2369C16.8682 5.32742 15.7595 4.61344 14.4722 4.19518ZM9.52793 19.4121C13.73 20.7774 18.2432 18.4778 19.6085 14.2758L17.7064 13.6577C16.6824 16.8093 13.2975 18.534 10.146 17.51C8.81445 17.0773 7.73766 16.2239 7.01494 15.1433L9 13.5843L3 11.8037L3.62747 17.8037L5.43872 16.3812C6.40028 17.7614 7.80402 18.852 9.52793 19.4121Z" fill="white"/>
</svg>
