<svg width="24" height="24" viewBox="0 0 24 24" fill="none" xmlns="http://www.w3.org/2000/svg">
<path fill-rule="evenodd" clip-rule="evenodd" d="M5.20502 9.89689C4.99954 10.5615 4.88889 11.2679 4.88889 12C4.88889 15.9274 8.07265 19.1111 12 19.1111C15.9274 19.1111 19.1111 15.9274 19.1111 12C19.1111 10.8633 18.8444 9.78895 18.3702 8.83602C13.2499 9.88865 11.6533 8.0153 10.5989 6.77819C10.3106 6.43988 10.0628 6.14914 9.79458 5.97885C9.33145 8.90517 6.08902 9.72627 5.20502 9.89689ZM12 3.11111C7.09081 3.11111 3.11111 7.09081 3.11111 12C3.11111 16.9092 7.09081 20.8889 12 20.8889C16.9092 20.8889 20.8889 16.9092 20.8889 12C20.8889 7.09081 16.9092 3.11111 12 3.11111Z" fill="white"/>
<path d="M14.6667 13.7778C15.4031 13.7778 16 13.1808 16 12.4444C16 11.7081 15.4031 11.1111 14.6667 11.1111C13.9303 11.1111 13.3334 11.7081 13.3334 12.4444C13.3334 13.1808 13.9303 13.7778 14.6667 13.7778Z" fill="white"/>
<path d="M9.33333 13.7778C10.0697 13.7778 10.6667 13.1808 10.6667 12.4444C10.6667 11.7081 10.0697 11.1111 9.33333 11.1111C8.59695 11.1111 8 11.7081 8 12.4444C8 13.1808 8.59695 13.7778 9.33333 13.7778Z" fill="white"/>
</svg>
