<svg width="24" height="25" viewBox="0 0 24 25" fill="none" xmlns="http://www.w3.org/2000/svg">
<path fill-rule="evenodd" clip-rule="evenodd" d="M15.8171 14.1349V10.6809L19.3597 8.1474C20.0336 7.66549 20.9705 7.82108 21.4524 8.49492C21.6344 8.74946 21.7323 9.05456 21.7323 9.36749V15.3945C21.7323 16.2229 21.0607 16.8945 20.2323 16.8945C19.9245 16.8945 19.6242 16.7998 19.3721 16.6233L15.8171 14.1349ZM17.8171 13.0935L19.7323 14.4342V10.3398L17.8171 11.7094V13.0935Z" fill="white"/>
<path fill-rule="evenodd" clip-rule="evenodd" d="M2.74457 3.4985L1.9437 4.29938L18.6302 20.9859L19.4311 20.185L2.74457 3.4985Z" fill="white"/>
<path fill-rule="evenodd" clip-rule="evenodd" d="M3.13535 7.00145C3.04844 7.19134 3 7.40251 3 7.625V17.125C3 17.9534 3.67157 18.625 4.5 18.625H14.7589L12.7589 16.625H5V8.8661L3.13535 7.00145ZM5.8196 8.125L3.9312 6.2366C4.10661 6.16466 4.29867 6.125 4.5 6.125H16C16.8284 6.125 17.5 6.79657 17.5 7.625V17.125C17.5 17.8537 16.9803 18.4611 16.2913 18.5967L14.3196 16.625H15.5V8.125H5.8196Z" fill="white"/>
</svg>
