<svg width="24" height="24" viewBox="0 0 24 24" fill="none" xmlns="http://www.w3.org/2000/svg">
<path fill-rule="evenodd" clip-rule="evenodd" d="M5 16.5V8H15.5V16.5H5ZM4.5 6C3.67157 6 3 6.67157 3 7.5V17C3 17.8284 3.67157 18.5 4.5 18.5H16C16.8284 18.5 17.5 17.8284 17.5 17V15.1878L19.3721 16.4983C19.6242 16.6748 19.9245 16.7695 20.2323 16.7695C21.0607 16.7695 21.7323 16.0979 21.7323 15.2695V9.24247C21.7323 8.92954 21.6344 8.62444 21.4524 8.3699C20.9705 7.69606 20.0336 7.54048 19.3597 8.02238L17.5 9.3524V7.5C17.5 6.67157 16.8284 6 16 6H4.5ZM19.7323 14.3091L17.8171 12.9685V11.5844L19.7323 10.2148V14.3091Z" fill="white"/>
</svg>
