<svg width="24" height="24" viewBox="0 0 24 24" fill="none" xmlns="http://www.w3.org/2000/svg">
<path fill-rule="evenodd" clip-rule="evenodd" d="M8.42862 8.1429V3H10.4286V8.1429C10.4286 9.40527 9.40527 10.4286 8.1429 10.4286H3V8.42862H8.1429C8.3007 8.42862 8.42862 8.3007 8.42862 8.1429Z" fill="white"/>
<path fill-rule="evenodd" clip-rule="evenodd" d="M8.1429 15.5715H3V13.5715H8.1429C9.40527 13.5715 10.4286 14.5949 10.4286 15.8572V21.0001H8.42862V15.8572C8.42862 15.6994 8.3007 15.5715 8.1429 15.5715Z" fill="white"/>
<path fill-rule="evenodd" clip-rule="evenodd" d="M15.5714 3V8.1429C15.5714 8.3007 15.6993 8.42862 15.8571 8.42862H21V10.4286H15.8571C14.5947 10.4286 13.5714 9.40527 13.5714 8.1429V3H15.5714Z" fill="white"/>
<path fill-rule="evenodd" clip-rule="evenodd" d="M15.8571 15.5715C15.6993 15.5715 15.5714 15.6994 15.5714 15.8572V21.0001H13.5714V15.8572C13.5714 14.5949 14.5947 13.5715 15.8571 13.5715H21V15.5715H15.8571Z" fill="white"/>
</svg>
