<svg width="24" height="24" viewBox="0 0 24 24" fill="none" xmlns="http://www.w3.org/2000/svg">
<path fill-rule="evenodd" clip-rule="evenodd" d="M2.14398 11.4616C4.82104 7.02853 8.09047 4.54999 12 4.54999C15.9095 4.54999 19.179 7.02853 21.856 11.4616C22.0476 11.7789 22.048 12.1761 21.8571 12.4937C19.191 16.9292 15.921 19.4071 12 19.4071C8.07895 19.4071 4.80905 16.9292 2.14292 12.4937C1.95198 12.1761 1.95239 11.7789 2.14398 11.4616ZM4.17638 11.9797C6.57637 15.7502 9.1981 17.4071 12 17.4071C14.8019 17.4071 17.4236 15.7502 19.8236 11.9797C17.4121 8.20659 14.7903 6.54999 12 6.54999C9.20971 6.54999 6.58787 8.20659 4.17638 11.9797Z" fill="white"/>
<path fill-rule="evenodd" clip-rule="evenodd" d="M12.0644 14.9358C13.662 14.9358 14.9572 13.6406 14.9572 12.0429C14.9572 11.1993 14.5961 10.44 14.02 9.91118C13.505 9.43857 12.8184 9.15009 12.0644 9.15009C10.4667 9.15009 9.17151 10.4453 9.17151 12.0429C9.17151 13.6406 10.4667 14.9358 12.0644 14.9358Z" fill="white"/>
</svg>
